<?xml version="1.0" encoding="utf-8"?>
<!-- Generator: Adobe Illustrator 27.9.0, SVG Export Plug-In . SVG Version: 6.00 Build 0)  -->
<svg version="1.1" id="Layer_1" xmlns="http://www.w3.org/2000/svg" xmlns:xlink="http://www.w3.org/1999/xlink" x="0px" y="0px"
	 viewBox="0 0 392.2 500.3" style="enable-background:new 0 0 392.2 500.3;" xml:space="preserve">
<style type="text/css">
	.st0{fill-rule:evenodd;clip-rule:evenodd;fill:#3174B9;}
	.st1{fill-rule:evenodd;clip-rule:evenodd;fill:#CA3132;}
</style>
<g>
	<path class="st0" d="M129.7,386.9c0,0-19.1,11.1,13.6,14.9c39.7,4.5,59.9,3.9,103.6-4.4c0,0,11.5,7.2,27.6,13.4
		C176.5,452.8,52.7,408.4,129.7,386.9z M117.7,332.1c0,0-21.4,15.9,11.3,19.3c42.4,4.4,75.8,4.7,133.7-6.4c0,0,8,8.1,20.6,12.5
		C164.8,392.2,33,360.3,117.7,332.1z"/>
	<path class="st1" d="M218.6,239.2c24.1,27.8-6.3,52.8-6.3,52.8s61.3-31.6,33.1-71.3c-26.3-36.9-46.4-55.3,62.7-118.6
		C308.1,102.2,136.8,145,218.6,239.2z"/>
	<path class="st0" d="M348.1,427.4c0,0,14.1,11.7-15.6,20.7c-56.5,17.1-235.3,22.3-285,0.7C29.7,441,63.2,430.3,73.7,428
		c11-2.4,17.2-1.9,17.2-1.9c-19.9-14-128.3,27.5-55.1,39.3C235.6,497.8,399.9,450.8,348.1,427.4L348.1,427.4z M138.8,275.4
		c0,0-90.9,21.6-32.2,29.5c24.8,3.3,74.2,2.6,120.3-1.3c37.6-3.2,75.4-9.9,75.4-9.9s-13.3,5.7-22.9,12.2
		c-92.3,24.3-270.7,13-219.4-11.9C103.5,273,138.8,275.4,138.8,275.4L138.8,275.4z M302,366.6c93.9-48.8,50.5-95.6,20.2-89.3
		c-7.4,1.5-10.7,2.9-10.7,2.9s2.8-4.3,8-6.2c59.9-21.1,106,62.1-19.3,95.1C300.1,369,301.5,367.7,302,366.6z"/>
	<path class="st1" d="M245.4,0c0,0,52,52-49.3,132c-81.2,64.2-18.5,100.7,0,142.5c-47.4-42.8-82.2-80.4-58.9-115.5
		C171.4,107.5,266.4,82.6,245.4,0L245.4,0z"/>
	<path class="st0" d="M148.1,498.7c90.1,5.8,228.5-3.2,231.7-45.8c0,0-6.3,16.2-74.5,29c-76.9,14.5-171.8,12.8-228,3.5
		C77.3,485.4,88.9,494.9,148.1,498.7z"/>
	<path class="st1" d="M375.7,575.2h-2.7v-1.5h7.4v1.5h-2.7v7.7h-1.9V575.2z M390.4,575.6L390.4,575.6l-2.8,7.3h-1.2l-2.7-7.3h0v7.3
		h-1.8v-9.2h2.7l2.5,6.5l2.5-6.5h2.6v9.2h-1.8L390.4,575.6L390.4,575.6L390.4,575.6z M133.3,661.6c-8.5,7.4-17.5,11.5-25.5,11.5
		c-11.5,0-17.7-6.9-17.7-17.9c0-12,6.7-20.7,33.4-20.7h9.9L133.3,661.6L133.3,661.6z M156.8,688.1v-81.9c0-20.9-11.9-34.7-40.7-34.7
		c-16.8,0-31.5,4.1-43.5,9.4l3.4,14.5c9.4-3.5,21.6-6.7,33.6-6.7c16.6,0,23.7,6.7,23.7,20.5v10.4H125c-40.3,0-58.4,15.6-58.4,39.1
		c0,20.2,12,31.7,34.5,31.7c14.5,0,25.3-6,35.4-14.7l1.8,12.4H156.8z M235,688.1h-29.2l-35.2-114.6h25.5l21.9,70.4l4.9,21.2
		c11-30.6,18.8-61.6,22.8-91.5h24.8C263.8,611.3,251.8,652.7,235,688.1z M347.2,661.6c-8.5,7.4-17.5,11.5-25.5,11.5
		c-11.5,0-17.7-6.9-17.7-17.9c0-12,6.7-20.7,33.4-20.7h9.9V661.6z M370.7,688.1v-81.9c0-20.9-12-34.7-40.7-34.7
		c-16.8,0-31.5,4.1-43.5,9.4l3.4,14.5c9.4-3.5,21.6-6.7,33.6-6.7c16.6,0,23.7,6.7,23.7,20.5v10.4H339c-40.3,0-58.4,15.6-58.4,39.1
		c0,20.2,11.9,31.7,34.5,31.7c14.5,0,25.3-6,35.4-14.7l1.8,12.4H370.7z M40.9,707.6c-6.7,9.8-17.5,17.5-29.3,21.9L0,715.8
		c9-4.6,16.7-12.1,20.3-19c3.1-6.2,4.4-14.1,4.4-33.2V532.8h24.9v129C49.6,687.2,47.6,697.5,40.9,707.6z"/>
</g>
</svg>
