<?xml version="1.0" encoding="utf-8"?>
<!-- Generator: Adobe Illustrator 27.2.0, SVG Export Plug-In . SVG Version: 6.00 Build 0)  -->
<svg version="1.1" xmlns="http://www.w3.org/2000/svg" xmlns:xlink="http://www.w3.org/1999/xlink" x="0px" y="0px"
	 viewBox="0 0 300 300" style="enable-background:new 0 0 300 300;" xml:space="preserve">
<style type="text/css">
	.st0{display:none;}
	.st1{display:inline;fill:none;stroke:#FFFFFF;stroke-linecap:round;stroke-linejoin:round;stroke-miterlimit:10;}
	.st2{display:inline;fill:none;stroke:#FFFFFF;stroke-miterlimit:10;}
	.st3{fill:#FFFFFF;}
	.st4{opacity:0.9;}
	.st5{opacity:0.5;fill:#FFFFFF;}
</style>
<g id="bg">
	<g>
		<rect width="300" height="300"/>
	</g>
</g>
<g id="border" class="st0">
	<rect x="50" y="50" class="st1" width="200" height="200"/>
</g>
<g id="grid" class="st0">
	<rect x="65" y="62.5" class="st2" width="170" height="175"/>
	<line class="st2" x1="150" y1="50" x2="150" y2="250"/>
	<line class="st2" x1="50" y1="150" x2="250" y2="150"/>
	<line class="st1" x1="220.7" y1="150" x2="150" y2="79.3"/>
	<rect x="79.3" y="79.3" class="st1" width="141.4" height="141.4"/>
	<line class="st1" x1="150" y1="220.7" x2="79.3" y2="150"/>
</g>
<g id="Layer_5">
	<g>
		<g>
			<path class="st3" d="M79.3,162.5c-1.6,0-3.2-0.3-4.8-1c-4.7-1.9-7.7-6.5-7.7-11.5V62.5c0-6.9,5.6-12.5,12.5-12.5
				s12.5,5.6,12.5,12.5v57.3l49.4-49.4c4.9-4.9,12.8-4.9,17.7,0c4.9,4.9,4.9,12.8,0,17.7l-70.7,70.7
				C85.7,161.2,82.5,162.5,79.3,162.5z"/>
		</g>
	</g>
	<g>
		<g>
			<path class="st3" d="M114.6,197.9c-3.2,0-6.4-1.2-8.8-3.7c-4.9-4.9-4.9-12.8,0-17.7l70.7-70.7c4.9-4.9,12.8-4.9,17.7,0
				c4.9,4.9,4.9,12.8,0,17.7l-70.7,70.7C121,196.6,117.8,197.9,114.6,197.9z"/>
		</g>
	</g>
	<g>
		<g>
			<path class="st3" d="M220.7,250c-6.9,0-12.5-5.6-12.5-12.5v-57.3l-49.4,49.4c-4.9,4.9-12.8,4.9-17.7,0c-4.9-4.9-4.9-12.8,0-17.7
				l70.7-70.7c3.6-3.6,9-4.6,13.6-2.7c4.7,1.9,7.7,6.5,7.7,11.5v87.5C233.2,244.4,227.6,250,220.7,250z"/>
		</g>
	</g>
	<g class="st4">
		<g>
			
				<rect x="133.1" y="126.8" transform="matrix(0.7071 -0.7071 0.7071 0.7071 -60.3018 145.5813)" class="st3" width="25" height="37.5"/>
		</g>
		<g>
			<path class="st3" d="M194.2,176.5l-17.7-17.7l-17.7,17.7l-0.4-0.4l18.1,18.1c2.4,2.4,5.6,3.7,8.8,3.7s6.4-1.2,8.8-3.7
				C199.1,189.3,199.1,181.4,194.2,176.5z"/>
		</g>
		<g>
			<path class="st3" d="M132.3,114.6l-8.8-8.8c-4.9-4.9-12.8-4.9-17.7,0c-4.9,4.9-4.9,12.8,0,17.7l8.8,8.8L132.3,114.6z"/>
		</g>
	</g>
	<g>
		
			<rect x="115.4" y="121.7" transform="matrix(0.7071 -0.7072 0.7072 0.7071 -52.9796 127.9167)" class="st5" width="25" height="12.5"/>
		
			<rect x="150.8" y="157" transform="matrix(0.7071 -0.7071 0.7071 0.7071 -67.6239 163.2663)" class="st5" width="25" height="12.5"/>
	</g>
</g>
</svg>
