<?xml version="1.0" encoding="utf-8"?>
<!-- Generator: Adobe Illustrator 27.9.0, SVG Export Plug-In . SVG Version: 6.00 Build 0)  -->
<svg version="1.1" xmlns="http://www.w3.org/2000/svg" xmlns:xlink="http://www.w3.org/1999/xlink" x="0px" y="0px"
	 viewBox="0 0 130.6 130.6" style="enable-background:new 0 0 130.6 130.6;" xml:space="preserve">
<style type="text/css">
	.st0{display:none;}
	.st1{display:inline;}
	.st2{display:inline;fill:none;stroke:#FFFFFF;stroke-linecap:round;stroke-linejoin:round;stroke-miterlimit:10;}
	.st3{display:inline;fill:none;stroke:#FFFFFF;stroke-miterlimit:10;}
	.st4{fill:#FFFFFF;}
	.st5{opacity:0.9;}
</style>
<g id="Layer_2" class="st0">
	<rect x="-34.7" y="-34.7" class="st1" width="200" height="200"/>
</g>
<g id="Layer_1">
	<g id="bg" class="st0">
		<g class="st1">
			<rect x="-45.5" y="-45.5" width="300" height="300"/>
		</g>
	</g>
	<g id="border" class="st0">
		<rect x="4.5" y="4.5" class="st2" width="200" height="200"/>
	</g>
	<g id="grid" class="st0">
		<rect x="19.5" y="17" class="st3" width="170" height="175"/>
		<line class="st3" x1="104.5" y1="4.5" x2="104.5" y2="204.5"/>
		<line class="st3" x1="4.5" y1="104.5" x2="204.5" y2="104.5"/>
		<line class="st2" x1="175.2" y1="104.5" x2="104.5" y2="33.8"/>
		<rect x="33.8" y="33.8" class="st2" width="141.4" height="141.4"/>
		<line class="st2" x1="104.5" y1="175.2" x2="33.8" y2="104.5"/>
	</g>
	<g id="Layer_5">
		<g>
			<g>
				<path class="st4" d="M27.3,125.1c-1.6,0-3.2-0.3-4.8-1c-4.7-1.9-7.7-6.5-7.7-11.5V25.1c0-6.9,5.6-12.5,12.5-12.5
					s12.5,5.6,12.5,12.5v57.3L89.2,33c4.9-4.9,12.8-4.9,17.7,0c4.9,4.9,4.9,12.8,0,17.7l-70.7,70.7
					C33.7,123.8,30.5,125.1,27.3,125.1z"/>
			</g>
		</g>
		<g class="st5">
			<g>
				
					<rect x="72.1" y="80.5" transform="matrix(0.7071 -0.7071 0.7071 0.7071 -45.4041 88.9196)" class="st4" width="25" height="37.5"/>
			</g>
			<g>
				<path class="st4" d="M112.2,109.2L94.5,91.5l-17.7,17.7l-0.4-0.4l18.1,18.1c2.4,2.4,5.6,3.7,8.8,3.7s6.4-1.2,8.8-3.7
					C117.1,122,117.1,114.1,112.2,109.2z"/>
			</g>
			<g>
				<path class="st4" d="M80.3,77.2l-8.8-8.8c-4.9-4.9-12.8-4.9-17.7,0s-4.9,12.8,0,17.7l8.8,8.8L80.3,77.2z"/>
			</g>
		</g>
	</g>
	<path class="st4" d="M98,59.6l-61.9,61.9c-3.5,3.5-8.9,4.7-13.6,2.7c-1.6-0.6-3-1.6-4.1-2.7c-2.3-2.3-3.6-5.4-3.7-8.9l0-100
		C14.7,5.6,20.3,0,27.3,0c6.9,0,12.5,5.6,12.5,12.5v69.9l40.5-40.5"/>
</g>
</svg>
