<?xml version="1.0" encoding="utf-8"?>
<!-- Generator: Adobe Illustrator 27.2.0, SVG Export Plug-In . SVG Version: 6.00 Build 0)  -->
<svg version="1.1" xmlns="http://www.w3.org/2000/svg" xmlns:xlink="http://www.w3.org/1999/xlink" x="0px" y="0px"
	 viewBox="0 0 200 200" style="enable-background:new 0 0 200 200;" xml:space="preserve">
<style type="text/css">
	.st0{display:none;}
	.st1{display:inline;}
	.st2{display:inline;fill:none;stroke:#FFFFFF;stroke-linecap:round;stroke-linejoin:round;stroke-miterlimit:10;}
	.st3{display:inline;fill:none;stroke:#FFFFFF;stroke-miterlimit:10;}
	.st4{fill:#FFFFFF;}
</style>
<g id="bg" class="st0">
	<g class="st1">
		<rect x="-50" y="-50" width="300" height="300"/>
	</g>
</g>
<g id="border" class="st0">
	<rect class="st2" width="200" height="200"/>
</g>
<g id="grid" class="st0">
	<rect x="15" y="12.5" class="st3" width="170" height="175"/>
	<line class="st3" x1="100" y1="0" x2="100" y2="200"/>
	<line class="st3" x1="0" y1="100" x2="200" y2="100"/>
	<line class="st2" x1="170.7" y1="100" x2="100" y2="29.3"/>
	<rect x="29.3" y="29.3" class="st2" width="141.4" height="141.4"/>
	<line class="st2" x1="100" y1="170.7" x2="29.3" y2="100"/>
</g>
<g id="Layer_5">
	<g>
		<g>
			<path class="st4" d="M41.2,108.8c-2.3-2.3-3.7-5.4-3.7-8.8c0-6.9,5.6-12.5,12.5-12.5h100c6.9,0,12.5,5.6,12.5,12.5
				c0,6.9-5.6,12.5-12.5,12.5H50C46.5,112.5,43.4,111.1,41.2,108.8z"/>
		</g>
	</g>
	<g>
		<g>
			<path class="st4" d="M41.2,158.8c-2.3-2.3-3.7-5.4-3.7-8.8c0-6.9,5.6-12.5,12.5-12.5h100c6.9,0,12.5,5.6,12.5,12.5
				c0,6.9-5.6,12.5-12.5,12.5H50C46.5,162.5,43.4,161.1,41.2,158.8z"/>
		</g>
	</g>
	<g>
		<g>
			<path class="st4" d="M41.2,58.8c-2.3-2.3-3.7-5.4-3.7-8.8c0-6.9,5.6-12.5,12.5-12.5h100c6.9,0,12.5,5.6,12.5,12.5
				c0,6.9-5.6,12.5-12.5,12.5H50C46.5,62.5,43.4,61.1,41.2,58.8z"/>
		</g>
	</g>
</g>
</svg>
