<?xml version="1.0" encoding="utf-8"?>
<!-- Generator: Adobe Illustrator 27.2.0, SVG Export Plug-In . SVG Version: 6.00 Build 0)  -->
<svg version="1.1" xmlns="http://www.w3.org/2000/svg" xmlns:xlink="http://www.w3.org/1999/xlink" x="0px" y="0px"
	 viewBox="0 0 300 300" style="enable-background:new 0 0 300 300;" xml:space="preserve">
<style type="text/css">
	.st0{fill:#67D1D6;}
	.st1{fill:#FFFFFF;}
	.st2{fill:none;stroke:#FFFFFF;stroke-width:8;stroke-linecap:round;stroke-miterlimit:10;stroke-dasharray:0,0,16,16;}
</style>
<g id="Layer_2">
	<rect class="st0" width="300" height="300"/>
</g>
<g id="Layer_1">
	<g>
		<path class="st1" d="M81.1,68.9c14.3,0,23.7,9.1,23.7,22.3s-9.1,22.3-21.9,22.3c-2.9,0-5.5-0.3-7.9-1c-1,5.7-1.9,10.7-1.9,14.7
			c0,2.5-1.8,3.8-3.7,3.8s-3.5-1.2-3.5-3.7c0-8.6,3.8-20.1,3.8-33.8c0-2.5-1.2-7.3-1.2-8.4c0-2.2,1.6-3.5,3.4-3.5
			c4.4,0,5.1,6.6,5.1,11.9c0,4.5-0.4,8.7-0.9,12.7c1.9,0.6,4.2,1,6.6,1c8.9,0,14.9-6.7,14.9-16s-6.3-15.8-16.4-15.8
			c-12.8,0-19.2,6.5-19.2,15.5c0,3.2-1.7,4.8-3.5,4.8c-1.8,0-3.5-1.6-3.5-4.8C54.9,78.6,64.6,68.9,81.1,68.9
			C81.1,68.9,81.1,68.9,81.1,68.9z"/>
		<path class="st1" d="M145.9,108.2c0.6-1.6,1.8-2.3,2.8-2.3c1.4,0,2.8,1.2,2.8,2.9c0,0.4-0.1,0.8-0.2,1.2
			c-4.9,13-9.4,20.5-15.6,20.5c-3.6,0-7-2.5-8.4-7.7c-3.4,5.1-7.2,7.7-12.3,7.7c-6.8,0-11.8-4.8-11.8-14c0-12.4,8.7-21.6,17.5-21.6
			c2.3,0,4.6,0.6,6.8,1.9c0.6-1.7,1.7-2.7,3.5-2.7c1.7,0,3.1,1.2,3.1,3.7c0,2.1-1.4,12.4-1.4,17.3c0,7.3,1.7,9.1,3.5,9.1
			C139,124.2,142.9,115.9,145.9,108.2L145.9,108.2L145.9,108.2z M116,124.1c3,0,8.2-2.7,10.4-12.5c0.3-1.9,0.5-4,0.6-7.2
			c-0.7-1.9-2.7-3.2-5.3-3.2c-5.8,0-11.5,6.5-11.5,15C110.2,121.7,112.6,124.1,116,124.1C116,124.1,116,124.1,116,124.1z"/>
		<path class="st1" d="M181.8,105.9c1.4,0,2.8,1.2,2.8,2.9c0,0.4-0.1,0.8-0.2,1.2c-4.8,12.8-9.8,20.4-18.2,20.4
			c-6.4,0-11-4.6-11-11.1c0-5.4,2.6-11.7,5-17.3c-2-0.2-3.8-0.8-5.5-1.6c-1,3-2.1,5.9-3.4,9.5c-0.6,1.5-1.7,2.2-2.8,2.2
			c-1.4,0-2.8-1.1-2.8-2.7c0-0.4,0.1-0.8,0.3-1.3c1.5-3.7,2.7-7.3,3.5-10.6c-1-0.7-1.3-1.9-1.3-3c0-1.8,1.1-3.7,3.2-3.7
			c1.6,0,2.2,0.7,2.9,1.6c1.1,1.6,2.9,3.8,7.2,3.8c1.9,0,2.9-0.7,4-0.7c1.7,0,3,1.3,3,3.2c0,0.9-0.3,2.1-1,3.5
			c-1.9,4.6-5.4,11.6-5.4,16.7c0,3.2,1.9,5.1,4.8,5.1c5.3,0,9.8-9.9,12.1-15.9C179.7,106.6,180.8,105.9,181.8,105.9L181.8,105.9z"/>
		<path class="st1" d="M214.7,108.2c0.6-1.6,1.7-2.3,2.7-2.3c1.5,0,2.8,1.3,2.8,2.9c0,0.4-0.1,0.7-0.2,1.1
			c-4.7,12.4-9.3,20.7-17.1,20.7c-6,0-12.4-6.3-12.4-14.3c0-2.6,1.5-3.6,4.7-5.2c3-1.5,6.3-3.4,6.3-6.1c0-2.2-1.3-3.5-4-3.5
			c-4.7,0-10.9,5.1-11.3,17c0.1,2.3,0.2,4.6,0.4,7.1c0.2,3-1.1,4.7-3.5,4.7c-2.1,0-3.3-1.5-3.5-4.3c-0.3-6.3-0.4-12.8-0.4-19.1
			s0.4-11.2,1-15.6c-0.3-0.1-0.5-0.1-0.8-0.2c-1.9-0.5-2.8-1.9-2.8-3.1c0-1.5,1.1-2.9,2.9-2.9c0.5,0,1.1,0.1,1.7,0.2
			c3.2-12.8,9.5-17,16.2-17c6,0,10.1,4.1,10.1,9.9c0,6.8-6.8,13.7-20.3,13.7h-0.3c-0.4,3.1-0.7,6.7-0.9,10.9c3.5-5,8.5-7.6,13.2-7.6
			c5.2,0,9.1,3.9,9.1,9.2c0,6.3-4.4,9.2-7.6,10.9c-1.7,1-3,1.6-3,2.5c0,3.5,2.9,6.5,5.5,6.5C208,124.5,212.5,113.9,214.7,108.2
			L214.7,108.2L214.7,108.2z M188.2,86.5h0.1c8.6,0,12.8-4.2,12.8-7.8c0-2.3-1.5-3.8-3.7-3.8C194,74.9,190.4,77.3,188.2,86.5
			L188.2,86.5z"/>
		<path class="st1" d="M95.8,141.8c-3.4,0-6.8-0.3-10-0.6c-0.3,4.8-0.8,12.5-1.3,19.5c0.5,0,0.9,0,1.4,0c2.6,0,5.4,0.4,8,1
			c2.1,0.4,3.1,1.7,3.1,3c0,1.6-1.2,3-3.6,3c-1.5,0-4.8-0.6-7.3-0.6c-0.7,0-1.4,0-2,0.1l-0.2,2.4c-1.3,17.9-6.1,25.5-16,25.5
			c-6.3,0-11.8-4.6-11.8-9.8c0-2.6,1.6-4.1,3.3-4.1c1.8,0,2.6,1,3.2,3.1c0.8,2.9,2.9,4.2,5.3,4.2c5.3,0,7.6-5.9,8.7-19.5
			c0-0.1,0-0.3,0.1-0.6c-2.4,0.7-4.2,1.3-5.7,1.3c-2.1,0-3-1-3-2.5c0-1.2,0.9-2.3,2.3-3.2c1.7-1,4.2-1.8,6.8-2.4
			c0.5-7.3,1.2-17.7,1.4-21.2c-2.4-0.2-4.7-0.4-6.6-0.4c-5.4,0-8.6,2.2-8.6,6.2s2.9,5.2,4.8,6.6c1,0.7,1.6,1.5,1.6,2.8
			c0,1.6-1.1,2.7-3.6,2.7c-4.8,0-10-5.2-10-11.9c0-7.6,5.5-12.8,15.6-12.8c7.6,0,15.8,1.7,23,1.7c4.4,0,6.4-1.4,8.5-1.4
			c1.9,0,3.1,1.2,3.1,2.8C106.3,139.8,100.8,141.7,95.8,141.8L95.8,141.8L95.8,141.8z"/>
		<path class="st1" d="M130,173c0.6-1.5,1.7-2.2,2.9-2.2c1.4,0,2.8,1.1,2.8,2.7c0,0.4-0.1,0.8-0.3,1.3
			c-5.3,13.4-10.4,20.4-18.4,20.4c-7.4,0-13.3-5.7-13.3-22.6c0-31,7.6-38.7,15.4-38.7c4.5,0,7.8,3.3,7.8,8.6
			c0,10.1-5.3,22.3-16.1,34.4c0.5,6.8,2.5,12.1,6.9,12.1C122.9,188.9,127.5,179.2,130,173L130,173L130,173z M118.2,140.2
			c-2.5,0-6.8,7.4-7.6,27.2c6.5-8.8,9.4-17.1,9.4-23.7C120,140.9,119.3,140.2,118.2,140.2C118.2,140.2,118.2,140.2,118.2,140.2z"/>
		<path class="st1" d="M166.8,173c0.6-1.6,1.7-2.2,2.8-2.2c1.4,0,2.8,1.1,2.8,2.7c0,0.4-0.1,0.8-0.3,1.3c-3,7.8-9.4,11.8-15.6,12.4
			c-2.8,4.9-7.5,8.5-14.1,8.5c-9.5,0-13.7-7.5-13.7-15.7c0-10.1,6.4-21.3,17.1-21.3c2.3,0,4.3,0.4,5.9,1.1c4.8,1.8,8,8.2,8,14.9
			c0,2.1-0.3,4.3-0.8,6.4C162.1,179.9,165.1,177.3,166.8,173L166.8,173L166.8,173z M142.5,189.4c2.4,0,4.8-1.1,6.7-3.3
			c-5.6-2.5-9.1-8.3-9.1-13.9c0-2,0.3-3.9,0.9-5.6c-3.4,2.8-5.4,8.4-5.4,13.4C135.5,186.3,138.5,189.4,142.5,189.4L142.5,189.4
			L142.5,189.4z M148.8,165.6c-1.9,0-3,2.5-3,5.5c0,4.4,2.4,8.4,6.1,9.9c0.6-1.9,0.9-4.1,0.9-6.6
			C152.8,169.6,151.4,165.6,148.8,165.6L148.8,165.6L148.8,165.6z"/>
		<path class="st1" d="M220.8,173c0.6-1.6,1.7-2.3,2.8-2.3c1.4,0,2.8,1.2,2.8,2.9c0,0.4-0.1,0.8-0.2,1.2c-2.1,5.4-6.6,8-11,8
			c-1.8,0-3.7-0.5-5.3-1.4c-3.5,7.9-9.7,13.5-16,13.5c-3.6,0-6.4-1.6-7.9-4.8c-2.9,3.4-6.6,5.6-10.8,5.6c-5.5,0-9.5-4-9.5-11.9
			c0-6,2-13.7,2-19.9c0-3.2,1.4-4.6,3.6-4.6c2.1,0,3.3,1.2,3.3,4.6c0,5.8-2,13.9-2,19.3c0,4.8,1.5,6.2,3.4,6.2
			c2.5,0,8.4-3.7,10-16.4c0.2-1.8,0.3-3.9,0.3-6.6c0-2.2,1.3-3.9,3.5-3.9s3.4,1.3,3.4,3.7c0,2.7-0.1,4.9-0.3,6.7
			c0,0.4-0.1,0.8-0.1,1.2c-0.5,4.3-1.2,6.8-1.2,9.8c0,3.5,1.3,4.8,3,4.8c2.9,0,8.2-4.7,10.3-12.7c-1.1-2.3-1.8-5.1-1.8-8.5
			c0-5.5,2.4-8.4,4.8-8.4c2.3,0,4.8,2.9,4.8,9c0,2.7-0.3,5.3-1,7.9c1,0.8,2.2,1.2,3.5,1.2C217.5,177.2,219.8,175.8,220.8,173
			L220.8,173L220.8,173z"/>
	</g>
	<path class="st2" d="M228.9,165.3c8-12,25.5-0.7,27.8,10.6c6.4,30.4-12.8,58.2-36.8,61.8c-49.6,7.4-87-32.5-123-33
		c-36-0.5-45.8,18.5-54.2,26.4"/>
</g>
</svg>
