<?xml version="1.0" encoding="utf-8"?>
<!-- Generator: Adobe Illustrator 27.9.0, SVG Export Plug-In . SVG Version: 6.00 Build 0)  -->
<svg version="1.1" id="Layer_1" xmlns="http://www.w3.org/2000/svg" xmlns:xlink="http://www.w3.org/1999/xlink" x="0px" y="0px"
	 viewBox="0 0 270 303.5" style="enable-background:new 0 0 270 303.5;" xml:space="preserve">
<style type="text/css">
	.st0{fill:#9B4993;}
	.st1{fill:#682876;}
	.st2{fill:#823085;}
	.st3{fill:#FFFFFF;}
</style>
<g>
	<g transform="matrix(.831388 0 0 .831388 145 48.2714)">
		<path class="st0" d="M150.3,49.2c0-6.1-1.3-11.6-4-16.2c-2.6-4.6-6.5-8.4-11.8-11.4C91.4-3.3,48.1-28.2,4.9-53.1
			c-11.7-6.7-22.9-6.5-34.5,0.3C-46.8-42.7-133,6.7-158.7,21.6c-10.6,6.1-15.7,15.5-15.7,27.7c0,50.1,0,100.3,0,150.4
			c0,6,1.3,11.3,3.8,15.9c2.6,4.7,6.6,8.7,11.9,11.8c25.7,14.9,111.8,64.2,129,74.4c11.6,6.8,22.9,7.1,34.5,0.3
			c43.2-25,86.5-49.8,129.7-74.7c5.4-3.1,9.3-7,11.9-11.8c2.5-4.6,3.8-9.9,3.8-15.9C150.4,199.6,150.4,99.4,150.3,49.2L150.3,49.2z"
			/>
		<path class="st1" d="M-11.5,123.9l-159.1,91.6c2.6,4.7,6.6,8.7,11.9,11.8c25.7,14.9,111.8,64.2,129,74.4
			c11.6,6.8,22.9,7.1,34.5,0.3c43.2-25,86.5-49.8,129.7-74.7c5.4-3.1,9.3-7,11.9-11.8L-11.5,123.9z"/>
		<path class="st1" d="M-58.6,151.1c9.3,16.2,26.7,27.1,46.6,27.1c20.1,0,37.6-11,46.8-27.4l-46.3-26.8L-58.6,151.1z"/>
		<path class="st2" d="M150.3,49.2c0-6.1-1.3-11.6-4-16.2l-157.9,90.9l158.1,91.6c2.5-4.6,3.8-9.9,3.8-15.9
			C150.4,199.6,150.4,99.4,150.3,49.2L150.3,49.2z"/>
		<path class="st3" d="M34.8,150.8c-9.2,16.3-26.7,27.4-46.8,27.4c-20,0-37.4-10.9-46.6-27.1c-4.5-7.9-7.1-16.9-7.1-26.6
			c0-29.7,24-53.7,53.7-53.7c19.8,0,37.1,10.8,46.4,26.8l46.9-27C62.7,38.3,27.9,16.6-12,16.6c-59.6,0-107.8,48.3-107.8,107.8
			c0,19.5,5.2,37.9,14.3,53.7c18.6,32.4,53.5,54.2,93.6,54.2c40.1,0,75.1-21.9,93.7-54.4L34.8,150.8z"/>
	</g>
	<g>
		<path class="st3" d="M214.3,130.5h8.9v43h-8.9V130.5z"/>
		<path class="st3" d="M234,130.5h8.9v43H234V130.5z"/>
		<path class="st3" d="M207.1,137.7h43v8.9h-43V137.7z"/>
		<path class="st3" d="M207.1,157.4h43v8.9h-43V157.4z"/>
	</g>
</g>
</svg>
